<svg id="Capa_1" enable-background="new 0 0 497 497" height="512" viewBox="0 0 497 497" width="512" xmlns="http://www.w3.org/2000/svg"><g><path d="m279.882 443.689c-19.478 0-35.268 15.79-35.268 35.268 0 9.965 8.078 18.043 18.043 18.043h34.45c9.965 0 18.043-8.078 18.043-18.043 0-19.478-15.79-35.268-35.268-35.268z" fill="#ffaacb"/><circle cx="387.02" cy="67.362" fill="#b2b0bc" r="67.362"/><circle cx="166.977" cy="67.362" fill="#b2b0bc" r="67.362"/><path d="m387.02 134.724c11.19 0 21.734-2.745 31.021-7.573-17.099-40.447-51.101-72.071-93.109-85.958-3.395 8.045-5.273 16.888-5.273 26.169 0 37.203 30.159 67.362 67.361 67.362z" fill="#a19dae"/><path d="m135.952 127.148c9.288 4.83 19.833 7.576 31.026 7.576 37.203 0 67.362-30.159 67.362-67.362 0-9.278-1.877-18.118-5.27-26.161-42.008 13.887-76.019 45.501-93.118 85.947z" fill="#a19dae"/><g fill="#ffaacb"><circle cx="174.164" cy="77.629" r="33.276"/><circle cx="379.833" cy="77.629" r="33.276"/><path d="m148.238 348.123c-28.986 3.808-56.053-6.652-78.591-45.977-12.039-20.878-19.793-44.944-24.394-68.608-1.231-6.331-6.762-11.151-13.467-11.244-7.685-.107-14.001 6.036-14.108 13.721-1.325 82.367 32.797 164.41 113.477 179.292 8.291 1.721 17.743 3.467 26.217 2.353.001.001-9.134-69.537-9.134-69.537z"/></g><g><path d="m293.636 350.007 47.799 28.852c10.923 6.594 14.434 20.794 7.84 31.716-4.34 7.189-11.973 11.167-19.8 11.167-4.065 0-8.182-1.073-11.916-3.327l-47.799-28.852z" fill="#a19dae"/></g><path d="m89.862 328.973c-5.335 14.188-8.128 29.368-8.128 44.979 0 7.388.626 14.679 1.849 21.815 13.581 9.412 29.391 16.186 47.574 19.541 8.291 1.721 17.743 3.466 26.217 2.353 0 0-9.135-69.538-9.135-69.538-20.764 2.728-40.542-1.87-58.377-19.15z" fill="#ff82b3"/><path d="m299.569 283.689c-38.104-38.104-121.153-16.835-159.257 21.269s-38.104 99.884 0 137.988 99.884 38.104 137.988 0 59.373-121.153 21.269-159.257z" fill="#b2b0bc"/><path d="m160.312 324.958c34.708-34.708 106.698-55.439 148.054-30.066-2.483-4.047-5.4-7.807-8.796-11.204-38.104-38.104-121.153-16.835-159.257 21.27s-38.104 99.884 0 137.988c3.397 3.397 6.99 6.478 10.73 9.27-28.519-38.21-25.438-92.551 9.269-127.258z" fill="#a19dae"/><path d="m379.833 110.906c9.355 0 17.815-3.886 23.866-10.122-12.574-18.517-29.102-34.138-48.354-45.658-5.452 5.929-8.789 13.833-8.789 22.502.001 18.35 14.929 33.278 33.277 33.278z" fill="#ff82b3"/><path d="m150.301 100.787c6.051 6.234 14.51 10.119 23.863 10.119 18.348 0 33.276-14.928 33.276-33.277 0-8.669-3.335-16.572-8.787-22.5-19.251 11.52-35.777 27.142-48.352 45.658z" fill="#ff82b3"/><path d="m444.258 186.554c0 77.661-64.987 140.617-145.154 140.617s-145.154-62.957-145.154-140.617c0-67.958 55.091-123.048 123.048-123.048 67.958 0 123.048 55.091 123.048 123.048.001 0 24.329-15.416 44.212 0z" fill="#c7c5cb"/><path d="m472.246 153.432c-9.483-9.483-24.859-9.483-34.343 0-9.483 9.483-16.744 32.119-7.26 41.603 9.483 9.483 32.119 2.223 41.603-7.26 9.484-9.484 9.484-24.86 0-34.343z" fill="#423e4f"/><path d="m175.282 443.689c-19.478 0-35.268 15.79-35.268 35.268 0 9.965 8.078 18.043 18.043 18.043h34.45c9.965 0 18.043-8.078 18.043-18.043 0-19.478-15.79-35.268-35.268-35.268z" fill="#ffaacb"/><path d="m170.014 478.957c0-14.113 8.293-26.284 20.268-31.921-4.553-2.143-9.635-3.347-15-3.347-19.478 0-35.268 15.79-35.268 35.268 0 9.965 8.078 18.043 18.043 18.043h30c-9.965 0-18.043-8.078-18.043-18.043z" fill="#ff82b3"/><path d="" style="fill:none;stroke:#000;stroke-width:15;stroke-linecap:round;stroke-linejoin:round;stroke-miterlimit:10"/><path d="m361.894 180.74v-12.327c0-1.379-.379-2.667-1.028-3.777l10.027-2.687c4.001-1.072 6.375-5.185 5.304-9.186-1.072-4.001-5.186-6.376-9.186-5.303l-28.616 7.667c-4.001 1.072-6.375 5.185-5.304 9.186.898 3.351 3.928 5.561 7.24 5.561.643 0 1.296-.083 1.946-.257l4.619-1.238c0 .012-.002.022-.002.034v12.327c0 4.142 3.358 7.5 7.5 7.5s7.5-3.358 7.5-7.5z" fill="#423e4f"/><path d="m273.436 155.128-28.616-7.667c-3.995-1.071-8.113 1.302-9.186 5.303-1.072 4.001 1.302 8.113 5.304 9.186l10.027 2.687c-.649 1.11-1.028 2.398-1.028 3.777v12.327c0 4.142 3.358 7.5 7.5 7.5s7.5-3.358 7.5-7.5v-12.327c0-.012-.002-.022-.002-.034l4.619 1.238c.65.174 1.303.257 1.946.257 3.311 0 6.342-2.21 7.24-5.561 1.071-4.001-1.303-8.114-5.304-9.186z" fill="#423e4f"/><path d="m400.341 210.467c-3.122-2.721-7.86-2.396-10.582.727-2.84 3.259-6.941 5.129-11.25 5.129s-8.41-1.87-11.25-5.129c-2.722-3.123-7.459-3.448-10.582-.727-3.123 2.722-3.448 7.459-.727 10.582 5.69 6.529 13.913 10.274 22.559 10.274s16.869-3.745 22.559-10.274c2.722-3.123 2.397-7.86-.727-10.582z" fill="#423e4f"/><path d="m258.361 357.089-20.68-12.483c-3.547-2.141-8.157-1-10.297 2.545-2.141 3.546-1.001 8.156 2.545 10.296l20.68 12.483c3.568 2.154 6.084 5.568 7.084 9.614 1 4.045.365 8.238-1.789 11.806-2.851 4.723-7.853 7.543-13.379 7.543-2.824 0-5.604-.777-8.04-2.248l-20.68-12.482c-3.548-2.141-8.157-1.001-10.297 2.545-2.141 3.546-1.001 8.156 2.545 10.297l20.68 12.482c4.775 2.883 10.236 4.406 15.792 4.406 10.828 0 20.63-5.529 26.221-14.791 4.224-6.998 5.47-15.222 3.509-23.157-1.962-7.936-6.896-14.632-13.894-18.856z" fill="#a19dae"/></g></svg>